# xmcd
#
# Track frame offsets:
#	150
#	17867
#	35114
#	49568
#	67125
#	80555
#	92057
#	102486
#	119262
#	142212
#	157594
#	175001
#	186992
#	207930
#	219509
#	230048
#	240792
#	261933
#	279429
#	294997
#	309283
#
# Disc length: 4361 seconds
#
# Revision: 1
# Processed by: cddbd v1.4PL0 Copyright (c) Steve Scherf et al.
# Submitted via: audiograbber 1.80.04
#
DISCID=2e110715
DTITLE=Mumiy Troll - Zvyozdnaya seriya 1
DYEAR=2001
DGENRE=Pop
TTITLE0=Nevesta
TTITLE1=Devotchkodrug
TTITLE2=Karnavala.net
TTITLE3=Kassetnyy mal'tchik
TTITLE4=Delay menya totchno
TTITLE5=Devushki emansipe
TTITLE6=Bit Bum
TTITLE7=Vetcherniy ray
TTITLE8=S Novym Godom, Kroshka!
TTITLE9=Devotchka
TTITLE10=Skorost'
TTITLE11=Vladivostok 2000
TTITLE12=Del'finy
TTITLE13=Zabavy
TTITLE14=Utekay
TTITLE15=Roza Lyuksemburg
TTITLE16=Morskaya bolezn'
TTITLE17=Inoplanetnyy gost'
TTITLE18=Lunnye devitsy
TTITLE19=Kot kota
TTITLE20=Tak nado
EXTD=
EXTT0=
EXTT1=
EXTT2=
EXTT3=
EXTT4=
EXTT5=
EXTT6=
EXTT7=
EXTT8=
EXTT9=
EXTT10=
EXTT11=
EXTT12=
EXTT13=
EXTT14=
EXTT15=
EXTT16=
EXTT17=
EXTT18=
EXTT19=
EXTT20=
PLAYORDER=
